<?xml version="1.0" encoding="utf-8"?>
<!-- Generator: Adobe Illustrator 18.1.1, SVG Export Plug-In . SVG Version: 6.00 Build 0)  -->
<!DOCTYPE svg PUBLIC "-//W3C//DTD SVG 1.1//EN" "http://www.w3.org/Graphics/SVG/1.1/DTD/svg11.dtd">
<svg version="1.1" id="Layer_1" xmlns="http://www.w3.org/2000/svg" xmlns:xlink="http://www.w3.org/1999/xlink" x="0px" y="0px"
	 viewBox="400 0 400 400" enable-background="new 400 0 400 400" xml:space="preserve">
<rect x="400" fill="none" width="400" height="400"/>
<g>
	<path fill='#53535b' d="M631.2,281.1l-3,12.4c-9.1,3.6-16.3,6.3-21.7,8.2c-5.4,1.9-11.7,2.8-18.8,2.8c-11,0-19.5-2.7-25.6-8
		C556,291,553,284.2,553,276c0-3.2,0.2-6.5,0.7-9.8c0.5-3.3,1.2-7.1,2.2-11.3l11.3-40.1c1-3.8,1.9-7.5,2.6-10.9c0.7-3.4,1-6.6,1-9.4
		c0-5.1-1.1-8.7-3.2-10.7c-2.1-2-6.2-3-12.1-3c-2.9,0-5.9,0.5-9,1.4c-3.1,0.9-5.7,1.8-7.9,2.6l3-12.4c7.4-3,14.5-5.6,21.3-7.8
		c6.8-2.2,13.2-3.2,19.2-3.2c10.9,0,19.3,2.6,25.2,7.9c5.9,5.3,8.9,12.1,8.9,20.5c0,1.7-0.2,4.8-0.6,9.2c-0.4,4.4-1.2,8.4-2.3,12.1
		L602,251c-0.9,3.2-1.7,6.9-2.5,11c-0.7,4.1-1.1,7.2-1.1,9.3c0,5.3,1.2,8.9,3.6,10.8c2.4,1.9,6.5,2.9,12.3,2.9
		c2.7,0,5.8-0.5,9.3-1.4C627.2,282.7,629.7,281.8,631.2,281.1z M634.1,113.4c0,7-2.6,12.9-7.9,17.8c-5.3,4.9-11.6,7.3-19,7.3
		c-7.4,0-13.8-2.4-19.1-7.3c-5.3-4.9-8-10.8-8-17.8c0-7,2.7-12.9,8-17.9c5.3-4.9,11.7-7.4,19.1-7.4c7.4,0,13.8,2.5,19,7.4
		C631.5,100.5,634.1,106.5,634.1,113.4z"/>
</g>
</svg>
