<svg id="Layer_1" data-name="Layer 1" xmlns="http://www.w3.org/2000/svg" viewBox="0 0 382 89.04">
<title>_upshoot_logo</title>
<path fill="#ffffff" d="M309.47,264.28h-21.2V321h11V299.64h10.16c11.2,0,18.64-7.36,18.64-17.68S320.67,264.28,309.47,264.28Zm-1.36,25.84h-8.72V273.88h8.72c5.52,0,8.88,3.12,8.88,8.16C317,286.92,313.63,290.12,308.11,290.12Zm67.6,14.56c0,8.72-7.28,17.52-20.48,17.52-15,0-21.68-9.68-22.56-17.76l10.24-2.72c.48,5.6,4.4,10.64,12.4,10.64,5.92,0,9.2-3,9.2-7,0-3.28-2.48-5.84-6.88-6.72l-7.92-1.6c-9-1.84-14.88-7.68-14.88-16.24,0-10.08,9-17.76,19.76-17.76,13.76,0,19,8.32,20.32,14.72l-9.92,3c-.56-3.12-3.12-8-10.32-8-5.36,0-8.88,3.44-8.88,7.2,0,3.12,2,5.6,6.16,6.4l7.92,1.52C370.19,290,375.71,296.68,375.71,304.68Zm45.12-40.4h11.12V321H420.83V297.48H396.11V321h-11V264.28h11v22.8h24.72Zm49.84-1.2c-15.36,0-29.12,11.28-29.12,29.6s13.76,29.52,29.12,29.52,29.2-11.28,29.2-29.52S486.1,263.08,470.66,263.08Zm0,48.4c-8.72,0-17.68-6.08-17.68-18.88s9-18.88,17.68-18.88,17.76,6.08,17.76,18.88S479.47,311.48,470.66,311.48Zm64.56-48.4c-15.36,0-29.12,11.28-29.12,29.6s13.76,29.52,29.12,29.52,29.2-11.28,29.2-29.52S550.66,263.08,535.22,263.08Zm0,48.4c-8.72,0-17.68-6.08-17.68-18.88s9-18.88,17.68-18.88S553,279.8,553,292.6,544,311.48,535.22,311.48Zm79-47.2v10.48H596.34V321H585.22V274.76H567.3V264.28Zm-332.82-20h-5.57v56.68c0,13.92-9.68,21.36-21.84,21.36s-21.76-7.44-21.76-21.36V264.28h11v35.84c0,7.44,4.16,11.36,10.72,11.36,6.72,0,10.8-3.92,10.8-11.36V244.24h-5.39l11-11Z" transform="translate(-232.27 -233.23)"/></svg>
